PathFileType	3	(X/Y/Z)	F:\ViconData\AntennenMessung\Messung1\Session1\ID06.trc
DataRate	CameraRate	NumFrames	NumMarkers	Units	OrigDataRate	OrigDataStartFrame	OrigNumFrames
120.0	120.0	4	70	mm	120.0	119	948	
Frame#	Time	Ashort			Along			Atop			A4			Bshort			Blong			Btop			B4			Cshort			Clong			Ctop			C4			Dshort			Dlong			Dtop			D4			Eshort			Elong			Etop			E4			Fshort			Flong			Ftop			F4			Gshort			Glong			Gtop			G4			Hshort			Hlong			Htop			H4			I1			I2			I3			I4			I5			WandAshort			WandAlong			WandAtop			WandA4			WandA15			WandBshort			WandB4			WandB5			WandBtop			WandBlong			WandCshort			WandClong			WandCtop			WandC4			WandC5			Acenter			Aantenna			Bcenter			Bantenna			Ccenter			Cantenna			Dcenter			Dantenna			Ecenter			Eantenna			Fcenter			Fantenna			Gcenter			Gantenna			Hcenter			Hantenna			Icenter			Iantenna			
		X1	Y1	Z1	X2	Y2	Z2	X3	Y3	Z3	X4	Y4	Z4	X5	Y5	Z5	X6	Y6	Z6	X7	Y7	Z7	X8	Y8	Z8	X9	Y9	Z9	X10	Y10	Z10	X11	Y11	Z11	X12	Y12	Z12	X13	Y13	Z13	X14	Y14	Z14	X15	Y15	Z15	X16	Y16	Z16	X17	Y17	Z17	X18	Y18	Z18	X19	Y19	Z19	X20	Y20	Z20	X21	Y21	Z21	X22	Y22	Z22	X23	Y23	Z23	X24	Y24	Z24	X25	Y25	Z25	X26	Y26	Z26	X27	Y27	Z27	X28	Y28	Z28	X29	Y29	Z29	X30	Y30	Z30	X31	Y31	Z31	X32	Y32	Z32	X33	Y33	Z33	X34	Y34	Z34	X35	Y35	Z35	X36	Y36	Z36	X37	Y37	Z37	X38	Y38	Z38	X39	Y39	Z39	X40	Y40	Z40	X41	Y41	Z41	X42	Y42	Z42	X43	Y43	Z43	X44	Y44	Z44	X45	Y45	Z45	X46	Y46	Z46	X47	Y47	Z47	X48	Y48	Z48	X49	Y49	Z49	X50	Y50	Z50	X51	Y51	Z51	X52	Y52	Z52	X53	Y53	Z53	X54	Y54	Z54	X55	Y55	Z55	X56	Y56	Z56	X57	Y57	Z57	X58	Y58	Z58	X59	Y59	Z59	X60	Y60	Z60	X61	Y61	Z61	X62	Y62	Z62	X63	Y63	Z63	X64	Y64	Z64	X65	Y65	Z65	X66	Y66	Z66	X67	Y67	Z67	X68	Y68	Z68	X69	Y69	Z69	X70	Y70	Z70	
119	0.98333333	-1038.2607	214.52815	-1644.1697	-1109.3395	203.64528	-1599.5895	-1063.5853	173.03529	-1625.6931	-1053.986	262.05389	-1634.9833	-1352.9003	235.30052	1004.0318	-1281.3508	227.1499	1052.4304	-1322.8983	194.17183	1020.8974	-1284.6512	287.76114	1052.8798	813.86584	187.4799	1209.6906	892.37769	178.24374	1179.3376	844.44629	145.33368	1198.3568	860.75781	292.27954	1167.4104	1115.8368	209.81808	-1401.7693	1056.3007	194.05225	-1460.2756	1095.0668	162.31491	-1423.9146	1069.843	238.61899	-1425.9407	-1204.4626	1685.9517	-1563.3107	-1129.1254	1688.2521	-1606.0784	-1173.093	1724.4482	-1581.9799	-1133.5372	1581.0809	-1603.5957	-1239.7026	1699.1729	1119.4497	-1309.1929	1698.4177	1071.8014	-1270.4994	1736.2886	1096.9114	-1245.7295	1592.8513	1110.683	988.87457	1664.2789	1162.3416	957.49573	1700.2839	1183.8757	922.2887	1662.2739	1215.0143	939.80176	1659.3762	1159.9854	999.23022	1668.4908	-1579.5023	1058.8546	1669.9395	-1518.7334	1025.1143	1708.0005	-1551.1772	1059.3505	1672.1514	-1585.5764	-232.47655	1722.7257	477.33801	-148.21924	1725.3436	477.58624	-195.55846	1761.0247	478.24841	-195.58617	1722.6453	509.03989	-195.63467	1725.86	430.73337																																														-1068.7981	209.85255	-1625.0167	-1074.2646	248.46104	-1624.3074	-1321.5541	231.72971	1025.2354	-1320.1685	270.44766	1029.7073	848.18213	183.4429	1196.4237	851.98218	222.20749	1194.4573	1088.766	202.64944	-1428.3717	1082.7821	240.95447	-1432.6046	-1171.8572	1686.9473	-1581.8202	-1170.5729	1647.9688	-1581.6542	-1270.8855	1698.8339	1098.0681	-1271.2874	1659.8545	1099.272	952.84558	1705.6196	1187.0668	972.7251	1733.8192	1168.885	1026.549	1669.1545	-1551.6589	1027.9883	1630.1841	-1552.1423	-194.40295	1723.9087	477.45016	-193.18965	1684.9365	476.612
120	0.99166667	-1038.2128	214.50186	-1644.1565	-1109.3306	203.59868	-1599.552	-1063.5317	173.01541	-1625.7211	-1053.9622	262.073	-1635.0137	-1352.9576	235.11983	1004.001	-1281.3699	227.159	1052.4489	-1322.8934	194.17383	1020.8179	-1284.61	287.77667	1052.9158	814.00177	187.42731	1209.5511	892.78827	178.79173	1178.8441	844.44861	145.36711	1198.3145	860.7998	292.27438	1167.4342	1115.7885	209.56627	-1401.626	1056.2881	194.01494	-1460.2401	1095.0986	162.40791	-1423.8997	1069.8561	238.60362	-1425.8967	-1204.4685	1685.9617	-1563.3236	-1129.1008	1688.2518	-1606.0625	-1173.0911	1724.4331	-1581.9841	-1133.5321	1581.017	-1603.5464	-1239.7148	1699.1779	1119.4564	-1309.4115	1698.7362	1071.9161	-1270.5436	1736.3541	1096.9355	-1245.7426	1592.8811	1110.7024	988.89874	1664.2805	1162.3749	957.5108	1700.3154	1183.8334	922.2005	1662.1707	1214.8661	939.77936	1659.3513	1160.0034	999.26843	1668.478	-1579.4781	1058.8506	1669.9432	-1518.7316	1025.1193	1708.0105	-1551.1836	1059.3445	1672.1628	-1585.5891	-232.46542	1722.7235	477.33612	-148.21964	1725.3392	477.59421	-195.58833	1761.0551	478.38446	-195.62524	1722.6597	509.0726	-195.66393	1725.8633	430.73465																																														-1068.7319	209.82289	-1625.015	-1074.1866	248.43245	-1624.2744	-1321.674	231.64096	1025.1726	-1320.4138	270.35995	1029.6727	847.88422	183.71355	1196.3453	851.35999	222.50723	1194.3534	1088.832	202.52077	-1428.1809	1082.8456	240.84093	-1432.271	-1171.8571	1686.9526	-1581.8165	-1170.5737	1647.9741	-1581.6422	-1271.0767	1698.979	1098.0643	-1271.6327	1660.0009	1099.2416	952.93927	1705.5638	1186.9585	972.90106	1733.7433	1168.8357	1026.5569	1669.1489	-1551.6562	1027.9985	1630.1785	-1552.1304	-194.43195	1723.9044	477.45261	-193.21896	1684.9354	476.47519
121	1	-1038.2473	214.48605	-1644.1676	-1109.3452	203.73079	-1599.5952	-1063.7688	172.53955	-1625.4286	-1054.1136	262.18942	-1634.9752	-1353.0784	235.0892	1004.0349	-1281.3572	227.17941	1052.4598	-1322.9631	194.10765	1020.8855	-1284.6398	287.80682	1052.9486	814.00391	187.50029	1209.6119	892.84692	178.9771	1178.765	844.48193	145.34128	1198.3827	860.80768	292.31958	1167.4106	1115.8612	209.84193	-1401.7764	1056.3171	194.10872	-1460.2256	1095.0875	162.28978	-1423.9375	1069.8658	238.69661	-1425.9292	-1204.4683	1685.9625	-1563.3109	-1129.1141	1688.2566	-1606.0347	-1173.0806	1724.4644	-1582.0029	-1133.5525	1581.0674	-1603.6041	-1239.6997	1699.155	1119.4435	-1309.3885	1698.7539	1071.9268	-1270.5424	1736.3512	1096.9384	-1245.7505	1592.9564	1110.7344	988.89758	1664.3002	1162.354	957.54419	1700.2489	1183.8372	922.13531	1662.3246	1214.9845	939.76868	1659.3507	1160.0292	999.24487	1668.4728	-1579.4783	1058.9866	1670.1222	-1518.7023	1025.1152	1708.0109	-1551.1741	1059.3579	1672.1672	-1585.6035	-232.31453	1722.5964	477.3508	-148.21829	1725.3547	477.59683	-195.55504	1761.0283	478.24518	-195.63147	1722.6719	509.05197	-195.66162	1725.8516	430.72958																																														-1069.0505	209.82631	-1624.8563	-1074.5199	248.43634	-1624.264	-1321.7356	231.63255	1025.1969	-1320.4689	270.35721	1029.6461	847.85547	183.84081	1196.3677	851.25519	222.63924	1194.3369	1088.7675	202.68301	-1428.3718	1082.7737	240.98955	-1432.5771	-1171.8319	1686.9561	-1581.8147	-1170.5345	1647.9781	-1581.6191	-1271.0822	1698.9744	1098.0454	-1271.6451	1659.9955	1099.2001	952.7785	1705.713	1187.1025	972.69952	1733.9197	1168.9768	1026.6343	1669.2289	-1551.6145	1028.1604	1630.2614	-1552.0573	-194.33301	1723.8422	477.46188	-193.05234	1684.8718	476.64105
122	1.0083333	-1038.2351	214.54297	-1644.2019	-1109.351	203.67674	-1599.574	-1063.5963	173.05261	-1625.6948	-1054.1615	262.17432	-1634.9731	-1353.047	235.02008	1004.0168	-1281.41	227.19086	1052.4391	-1322.8823	194.16133	1020.8348	-1284.6174	287.789	1052.9675	813.93695	187.47127	1209.5646	892.41241	178.31525	1179.2977	844.50354	145.32368	1198.3859	860.76068	292.32089	1167.4093	1115.8558	209.82301	-1401.7682	1056.3304	194.06982	-1460.2208	1095.0878	162.32545	-1423.9281	1069.8457	238.63075	-1425.9497	-1204.4768	1685.9751	-1563.3127	-1129.134	1688.2653	-1606.0527	-1173.0834	1724.4509	-1582.0128	-1133.5289	1581.076	-1603.5914	-1239.722	1699.1891	1119.4585	-1309.2236	1698.4657	1071.8131	-1270.5039	1736.2825	1096.9105	-1245.7484	1592.8959	1110.7137	988.90778	1664.3074	1162.3611	957.55206	1700.2928	1183.8329	922.20612	1662.2852	1214.9677	939.76807	1659.3799	1159.9669	999.25067	1668.5078	-1579.4973	1058.8623	1669.9651	-1518.7218	1025.1212	1708.0083	-1551.1776	1059.3466	1672.1617	-1585.6102	-232.49825	1722.7413	477.34406	-148.2538	1725.3282	477.58777	-195.55255	1761.0044	478.2569	-195.6032	1722.6597	509.04208	-195.67647	1725.8398	430.74252																																														-1068.7996	209.8728	-1625.0214	-1074.2559	248.48277	-1624.3151	-1321.731	231.59755	1025.1846	-1320.5402	270.31888	1029.6836	848.17358	183.47675	1196.3599	851.90271	222.24344	1194.3014	1088.7712	202.65515	-1428.3646	1082.7717	240.95987	-1432.5784	-1171.8389	1686.967	-1581.8274	-1170.5448	1647.989	-1581.6346	-1270.9133	1698.8644	1098.0759	-1271.3398	1659.8855	1099.29	952.86908	1705.6671	1187.0397	972.79395	1733.8569	1168.892	1026.5586	1669.1753	-1551.6561	1028.0011	1630.205	-1552.1366	-194.41125	1723.9108	477.45422	-193.21213	1684.9385	476.6109
